# xmcd CD database file
# Copyright (C) 1993-1996 Ti Kan
#
# Track frame offsets:
# 150
# 12657
# 22632
# 36387
# 46300
# 57970
# 68795
# 78942
# 89565
# 101240
# 113642
# 126940
# 137202
# 151460
# 163047
# 174057
# 187542
# 197625
# 208772
# 219625
# 231040
# 242365
# 254675
# 267130
#
# Disc length: 3695 seconds
#
# Revision: 0
# Processed by: cddbd v1.4b41PL1 Copyright (c) Steve Scherf et al.
# Submitted via: inCDius 1.1b5
#
DISCID=470e6d18
DTITLE=Ray Price - Ray Price And The Cherokee Cowboys Disc 3
DYEAR=1900
DGENRE=
TTITLE0=Sweet Little Miss Blue Eyes
TTITLE1=The Way She Got Away
TTITLE2=Let Me Talk To You
TTITLE3=Call The Lord And He'll Be There
TTITLE4=A Man Called Peter
TTITLE5=As Strange As It Seems (I Still Love You)
TTITLE6=I Can't Go Home Like This
TTITLE7=Don't You Know Me Any More
TTITLE8=I Don't Want It On My Conscience
TTITLE9=Run Boy
TTITLE10=You Never Will Be True
TTITLE11=Don't Tempt Me
TTITLE12=Slowly Dying
TTITLE13=Crazy Arms
TTITLE14=You Done Me Wrong
TTITLE15=Wild And Wicked World
TTITLE16=Crazy
TTITLE17=Are You Wasting My Time
TTITLE18=Fallin', Fallin', Fallin'
TTITLE19=Wasted Words
TTITLE20=Fallin', Fallin', Fallin'
TTITLE21=Wasted Words
TTITLE22=I've Got A New Heartache
TTITLE23=Don't Do This To Me
EXTD=
EXTT0=
EXTT1=
EXTT2=
EXTT3=
EXTT4=
EXTT5=
EXTT6=
EXTT7=
EXTT8=
EXTT9=
EXTT10=
EXTT11=
EXTT12=
EXTT13=
EXTT14=
EXTT15=
EXTT16=
EXTT17=
EXTT18=
EXTT19=
EXTT20=
EXTT21=
EXTT22=
EXTT23=
PLAYORDER=
